<?xml version="1.0" standalone="no"?>
<!DOCTYPE svg PUBLIC "-//W3C//DTD SVG 20010904//EN"
 "http://www.w3.org/TR/2001/REC-SVG-20010904/DTD/svg10.dtd">
<svg version="1.0" xmlns="http://www.w3.org/2000/svg"
 width="500.000000pt" height="500.000000pt" viewBox="0 0 500.000000 500.000000"
 preserveAspectRatio="xMidYMid meet">
<metadata>
Created by potrace 1.11, written by Peter Selinger 2001-2013
</metadata>
<g transform="translate(0.000000,500.000000) scale(0.100000,-0.100000)"
fill="#000000" stroke="none">
<path d="M1190 3153 c-19 -2 -65 -13 -102 -24 l-68 -20 0 -189 c0 -120 4 -190
10 -190 6 0 10 4 10 9 0 13 110 67 167 82 130 32 293 -59 355 -197 30 -67 30
-180 0 -246 -33 -76 -88 -133 -161 -170 -57 -28 -76 -32 -141 -32 -67 0 -82 4
-146 37 -51 27 -80 51 -108 88 -68 91 -69 99 -74 446 l-4 313 -31 -17 c-60
-30 -170 -153 -214 -239 -53 -101 -73 -183 -73 -299 1 -185 61 -336 184 -460
130 -131 283 -195 468 -195 91 0 119 4 200 31 159 51 282 152 368 300 106 181
108 445 4 633 -64 117 -189 234 -303 282 -99 43 -253 69 -341 57z m-417 -890
c-7 -2 -19 -2 -25 0 -7 3 -2 5 12 5 14 0 19 -2 13 -5z m984 1 c-3 -3 -12 -4
-19 -1 -8 3 -5 6 6 6 11 1 17 -2 13 -5z m-310 -270 c-3 -3 -12 -4 -19 -1 -8 3
-5 6 6 6 11 1 17 -2 13 -5z m111 -1 c-16 -2 -40 -2 -55 0 -16 2 -3 4 27 4 30
0 43 -2 28 -4z m-305 -50 c-13 -2 -35 -2 -50 0 -16 2 -5 4 22 4 28 0 40 -2 28
-4z"/>
<path d="M2080 2570 l0 -290 60 0 c49 0 60 3 60 17 0 14 2 14 21 -3 14 -12 40
-19 82 -22 52 -3 67 0 97 20 121 82 112 266 -16 329 -51 24 -118 22 -161 -6
l-23 -15 0 130 0 130 -60 0 -60 0 0 -290z m245 -65 c50 -49 20 -125 -50 -125
-69 0 -100 76 -50 125 13 14 36 25 50 25 14 0 37 -11 50 -25z"/>
<path d="M3180 2570 l0 -290 60 0 c49 0 60 3 60 17 0 14 2 14 21 -3 14 -12 40
-19 82 -22 52 -3 67 0 97 20 121 82 112 266 -16 329 -51 24 -118 22 -161 -6
l-23 -15 0 130 0 130 -60 0 -60 0 0 -290z m245 -65 c50 -49 20 -125 -50 -125
-69 0 -100 76 -50 125 13 14 36 25 50 25 14 0 37 -11 50 -25z"/>
<path d="M2992 2817 c-31 -33 -29 -80 4 -106 44 -34 86 -24 113 27 10 19 10
30 0 53 -21 53 -80 66 -117 26z"/>
<path d="M4092 2817 c-31 -33 -29 -80 4 -106 44 -34 86 -24 113 27 10 19 10
30 0 53 -21 53 -80 66 -117 26z"/>
<path d="M1175 2706 c-128 -56 -175 -215 -97 -329 45 -64 98 -91 182 -91 84 0
137 27 182 91 59 87 49 200 -25 282 -50 55 -171 78 -242 47z"/>
<path d="M2603 2621 c-103 -47 -133 -194 -60 -293 43 -58 151 -77 215 -38 26
16 32 17 32 5 0 -12 14 -15 60 -15 l60 0 0 175 0 175 -59 0 c-33 0 -62 -4 -65
-9 -3 -5 -23 -3 -43 5 -52 18 -91 17 -140 -5z m140 -102 c24 -11 47 -47 47
-73 0 -7 -9 -25 -21 -40 -24 -31 -81 -36 -111 -9 -29 26 -24 87 8 112 30 24
43 26 77 10z"/>
<path d="M3703 2621 c-103 -47 -133 -194 -60 -293 43 -58 151 -77 215 -38 26
16 32 17 32 5 0 -12 14 -15 60 -15 l60 0 0 175 0 175 -59 0 c-33 0 -62 -4 -65
-9 -3 -5 -23 -3 -43 5 -52 18 -91 17 -140 -5z m140 -102 c24 -11 47 -47 47
-73 0 -7 -9 -25 -21 -40 -24 -31 -81 -36 -111 -9 -29 26 -24 87 8 112 30 24
43 26 77 10z"/>
<path d="M2980 2455 l0 -175 60 0 60 0 0 175 0 175 -60 0 -60 0 0 -175z"/>
<path d="M4080 2455 l0 -175 60 0 60 0 0 175 0 175 -60 0 -60 0 0 -175z"/>
<path d="M2480 2120 c0 -29 4 -40 15 -40 8 0 15 6 15 13 0 8 4 7 10 -3 9 -13
11 -13 20 0 5 8 10 10 10 4 0 -7 26 -11 70 -11 42 0 70 4 70 10 0 7 5 6 12 -1
7 -7 31 -12 55 -12 38 0 43 2 40 22 -2 12 -12 25 -23 29 -17 7 -17 8 4 8 12 1
22 6 22 11 0 14 -84 12 -98 -2 -9 -9 -12 -9 -12 0 0 26 -30 11 -31 -15 l-1
-28 -11 28 c-6 15 -17 27 -24 27 -7 0 -19 -12 -27 -27 l-15 -28 -1 28 c0 31
-23 37 -40 10 -10 -17 -10 -17 -20 0 -20 32 -40 20 -40 -23z m250 4 c0 -8 -5
-12 -10 -9 -6 4 -8 11 -5 16 9 14 15 11 15 -7z"/>
<path d="M2830 2150 c0 -5 5 -10 10 -10 6 0 10 -13 10 -30 0 -42 27 -40 33 3
l4 32 1 -32 c1 -22 7 -33 17 -33 8 0 15 7 15 15 0 8 7 15 15 15 8 0 15 -7 15
-15 0 -11 12 -15 45 -15 40 0 45 2 42 22 -2 12 -12 25 -23 29 -17 7 -17 8 4 8
43 2 22 21 -23 21 -25 0 -45 -4 -45 -10 0 -5 -7 -10 -15 -10 -8 0 -15 5 -15
10 0 6 -20 10 -45 10 -25 0 -45 -4 -45 -10z"/>
<path d="M3081 2147 c-15 -15 -14 -42 2 -54 6 -6 54 -11 105 -11 80 -1 92 1
92 16 1 16 2 16 14 0 22 -30 36 -21 36 22 0 22 -4 40 -10 40 -5 0 -10 -7 -10
-17 0 -15 -2 -15 -17 0 -14 12 -40 15 -110 15 -51 0 -96 -5 -102 -11z m54 -27
c0 -8 -8 -16 -17 -18 -13 -2 -18 3 -18 18 0 15 5 20 18 18 9 -2 17 -10 17 -18z
m65 0 c0 -11 -7 -20 -15 -20 -8 0 -15 9 -15 20 0 11 7 20 15 20 8 0 15 -9 15
-20z"/>
<path d="M3360 2153 c0 -4 5 -22 12 -40 16 -44 41 -42 57 3 15 41 6 58 -15 29
-14 -19 -16 -19 -25 -2 -10 17 -29 24 -29 10z"/>
<path d="M3445 2130 c-8 -16 -15 -33 -15 -37 0 -5 65 -10 145 -11 144 -2 145
-2 142 20 -2 12 -12 25 -23 29 -17 7 -17 8 4 8 46 2 20 21 -28 21 -49 0 -50
-1 -50 -30 0 -16 -4 -30 -10 -30 -5 0 -10 14 -10 30 0 21 -5 30 -16 30 -12 0
-15 -7 -12 -30 4 -24 1 -30 -14 -30 -13 0 -18 8 -18 30 0 40 -30 42 -31 3 l-1
-28 -11 28 c-14 35 -33 34 -52 -3z"/>
<path d="M3750 2119 l0 -39 75 0 c71 0 75 1 72 22 -2 12 -12 25 -23 29 -15 6
-12 8 14 8 29 1 32 -2 32 -29 0 -20 5 -30 15 -30 10 0 15 10 15 30 0 20 5 30
15 30 10 0 15 -10 15 -30 0 -42 27 -40 33 3 l4 32 1 -33 2 -32 73 2 c79 2 77
0 69 66 -2 9 -49 12 -207 12 l-205 -1 0 -40z m340 12 c0 -5 -9 -7 -20 -4 -11
3 -20 7 -20 9 0 2 9 4 20 4 11 0 20 -4 20 -9z m50 -1 c0 -5 -4 -10 -10 -10 -5
0 -10 5 -10 10 0 6 5 10 10 10 6 0 10 -4 10 -10z"/>
</g>
</svg>
